<svg xmlns="http://www.w3.org/2000/svg" viewBox="0 0 64 64" fill="none">
  <!-- INFERNIS flame icon (standalone) -->
  <defs>
    <linearGradient id="flame-bg" x1="0%" y1="100%" x2="0%" y2="0%">
      <stop offset="0%" style="stop-color:#F97316"/>
      <stop offset="50%" style="stop-color:#EF4444"/>
      <stop offset="100%" style="stop-color:#DC2626"/>
    </linearGradient>
  </defs>
  <!-- Outer flame -->
  <path d="M32 58 C32 58 14 44 18 26 C20 18 16 8 16 8 C16 8 28 16 30 28 C30 28 34 20 32 12 C32 12 50 24 48 42 C46 52 38 60 32 58Z" fill="url(#flame-bg)"/>
  <!-- Inner flame -->
  <path d="M32 58 C32 58 22 48 26 36 C28 30 24 24 24 24 C24 24 34 32 34 40 C34 40 38 34 36 26 C36 26 46 36 44 48 C42 54 36 60 32 58Z" fill="#FCD34D" opacity="0.85"/>
  <!-- Core glow -->
  <path d="M32 56 C32 56 28 50 30 44 C31 40 29 36 29 36 C29 36 35 40 35 46 C35 46 37 42 36 38 C36 38 40 44 39 50 C38 54 34 57 32 56Z" fill="#FEF3C7" opacity="0.7"/>
</svg>
