<svg xmlns="http://www.w3.org/2000/svg" viewBox="0 0 400 100" fill="none">
  <!-- INFERNIS wordmark — dark background variant -->
  <defs>
    <linearGradient id="flame-d" x1="0%" y1="100%" x2="0%" y2="0%">
      <stop offset="0%" style="stop-color:#FB923C"/>
      <stop offset="50%" style="stop-color:#F87171"/>
      <stop offset="100%" style="stop-color:#EF4444"/>
    </linearGradient>
  </defs>
  <!-- Flame icon -->
  <path d="M30 75 C30 75 25 55 32 42 C36 35 30 25 30 25 C30 25 42 35 42 48 C42 48 46 40 44 32 C44 32 55 45 50 62 C47 72 38 78 30 75Z" fill="url(#flame-d)"/>
  <path d="M34 75 C34 75 31 62 36 52 C38 48 35 42 35 42 C35 42 43 48 43 56 C43 56 45 50 44 45 C44 45 50 52 48 64 C46 71 40 76 34 75Z" fill="#FCD34D" opacity="0.8"/>
  <!-- INFERNIS text (white for dark backgrounds) -->
  <text x="68" y="68" font-family="system-ui, -apple-system, 'Segoe UI', sans-serif" font-size="48" font-weight="700" letter-spacing="3" fill="#F8FAFC">INFERNIS</text>
  <!-- Tagline -->
  <text x="70" y="88" font-family="system-ui, -apple-system, 'Segoe UI', sans-serif" font-size="12" font-weight="400" letter-spacing="4" fill="#94A3B8">WILDFIRE RISK INTELLIGENCE</text>
</svg>
